<svg width="1075" height="343" viewBox="0 0 1075 343" fill="none" xmlns="http://www.w3.org/2000/svg">
<g clip-path="url(#clip0_579_28)">
<mask id="mask0_579_28" style="mask-type:luminance" maskUnits="userSpaceOnUse" x="0" y="0" width="1075" height="343">
<path d="M1074.07 0H0V343H1074.07V0Z" fill="white"/>
</mask>
<g mask="url(#mask0_579_28)">
<path fill-rule="evenodd" clip-rule="evenodd" d="M346.98 213.87C346.98 239.17 339.46 263.9 325.38 284.94C311.3 305.98 291.29 322.37 267.87 332.06C244.46 341.74 218.69 344.28 193.84 339.34C168.98 334.4 146.15 322.22 128.23 304.33C110.31 286.44 98.11 263.65 93.16 238.83C88.22 214.01 90.75 188.29 100.45 164.92C110.15 141.54 126.57 121.57 147.64 107.51C168.71 93.45 193.49 85.95 218.83 85.95C252.78 86.08 285.3 99.59 309.3 123.56C333.3 147.52 346.84 179.99 346.97 213.88" fill="#0064FF"/>
<path d="M752.1 69.34C694.36 69.34 653.27 117.04 653.27 174.77V175.8C653.27 238.29 697.31 281.22 757.92 281.22C773.51 281.75 789.01 278.58 803.14 271.96C817.26 265.34 829.61 255.46 839.15 243.14L806.9 213.88C800.79 220.41 793.39 225.61 785.16 229.14C776.94 232.67 768.07 234.46 759.11 234.4C747.46 235.08 735.97 231.37 726.92 224.02C717.87 216.66 711.91 206.18 710.21 194.65H848.7C848.7 189.8 849.66 183.92 849.66 178.75C848.7 122.06 818.6 69.35 752.1 69.35V69.34ZM709.02 159.18C713.96 132.78 728.61 116.17 752.1 116.17C775.59 116.17 791.2 133.74 794.15 159.18H709.02Z" fill="#1D1D23"/>
<path d="M555.48 197.26L517.33 72.28H468.43L431.24 196.31L398.91 73.23H341.25L402.89 278.36H453.7L492.88 153.3L531.03 278.36H581.84L644.44 73.23H587.74L555.49 197.26H555.48Z" fill="#1D1D23"/>
<path d="M56.7 0H0V277.32H56.7V0Z" fill="#1D1D23"/>
<path d="M940.28 114.25V73.23H883.58V276.37H940.28V201.08C940.28 152.26 963.77 129.52 1000.96 129.52H1003.91V69.02C970.62 68.3 952.22 85.95 940.27 114.26L940.28 114.25Z" fill="#1D1D23"/>
<path fill-rule="evenodd" clip-rule="evenodd" d="M1065.56 29.69C1065.56 43.17 1054.64 54.1 1041.16 54.1C1027.68 54.1 1016.75 43.17 1016.75 29.69C1016.75 16.21 1027.68 5.28 1041.16 5.28C1054.64 5.28 1065.56 16.21 1065.56 29.69ZM1070.84 29.69C1070.84 46.08 1057.55 59.37 1041.16 59.37C1024.77 59.37 1011.47 46.08 1011.47 29.69C1011.47 13.3 1024.76 0 1041.16 0C1057.56 0 1070.84 13.29 1070.84 29.68V29.69ZM1036.96 43.54H1028.64V13.53H1042.83C1047.42 13.53 1050.6 14.73 1052.61 16.79C1054.37 18.51 1055.27 20.82 1055.27 23.78V23.87C1055.27 28.46 1052.82 31.5 1049.09 33.09L1056.25 43.55H1046.65L1040.61 34.46H1036.96V43.55V43.54ZM1036.96 20.73V27.93H1042.45C1045.28 27.93 1046.91 26.56 1046.91 24.37V24.28C1046.91 21.92 1045.19 20.72 1042.41 20.72H1036.96V20.73Z" fill="#1D1D23"/>
</g>
</g>
<defs>
<clipPath id="clip0_579_28">
<rect width="1074.07" height="343" fill="white"/>
</clipPath>
</defs>
</svg>
